HIERARCHY
ROOT Hips
{
	OFFSET 0.000000 0.000000 0.000000
	CHANNELS 6 Xposition Yposition Zposition Zrotation Yrotation Xrotation 
	JOINT LHipJoint
	{
		OFFSET 0.000000 0.000000 0.000000
		CHANNELS 3 Zrotation Yrotation Xrotation
		JOINT LeftUpLeg
		{
			OFFSET 1.363060 -1.794630 0.839290
			CHANNELS 3 Zrotation Yrotation Xrotation
			JOINT LeftLeg
			{
				OFFSET 2.448110 -6.726130 0.000000
				CHANNELS 3 Zrotation Yrotation Xrotation
				JOINT LeftFoot
				{
					OFFSET 2.562200 -7.039590 0.000000
					CHANNELS 3 Zrotation Yrotation Xrotation
					JOINT LeftToeBase
					{
						OFFSET 0.157640 -0.433110 2.322550
						CHANNELS 3 Zrotation Yrotation Xrotation
						End Site
						{
							OFFSET 0.000000 0.000000 0.000000
						}
					}
				}
			}
		}
	}
	JOINT RHipJoint
	{
		OFFSET 0.000000 0.000000 0.000000
		CHANNELS 3 Zrotation Yrotation Xrotation
		JOINT RightUpLeg
		{
			OFFSET -1.305520 -1.794630 0.839290
			CHANNELS 3 Zrotation Yrotation Xrotation
			JOINT RightLeg
			{
				OFFSET -2.542530 -6.985550 0.000000
				CHANNELS 3 Zrotation Yrotation Xrotation
				JOINT RightFoot
				{
					OFFSET -2.568260 -7.056230 0.000000
					CHANNELS 3 Zrotation Yrotation Xrotation
					JOINT RightToeBase
					{
						OFFSET -0.164730 -0.452590 2.363150
						CHANNELS 3 Zrotation Yrotation Xrotation
						End Site
						{
							OFFSET 0.000000 0.000000 0.000000
						}
					}
				}
			}
		}
	}
	JOINT LowerBack
	{
		OFFSET 0.000000 0.000000 0.000000
		CHANNELS 3 Zrotation Yrotation Xrotation
		JOINT Spine
		{
			OFFSET 0.028270 2.035590 -0.193380
			CHANNELS 3 Zrotation Yrotation Xrotation
			JOINT Spine1
			{
				OFFSET 0.056720 2.048850 -0.042750
				CHANNELS 3 Zrotation Yrotation Xrotation
				JOINT Neck
				{
					OFFSET 0.000000 0.000000 0.000000
					CHANNELS 3 Zrotation Yrotation Xrotation
					JOINT Neck1
					{
						OFFSET -0.054170 1.746240 0.172020
						CHANNELS 3 Zrotation Yrotation Xrotation
						JOINT Head
						{
							OFFSET 0.104070 1.761360 -0.123970
							CHANNELS 3 Zrotation Yrotation Xrotation
							End Site
							{
								OFFSET 0.000000 0.000000 0.000000
							}
						}
					}
				}
				JOINT LeftShoulder
				{
					OFFSET 0.000000 0.000000 0.000000
					CHANNELS 3 Zrotation Yrotation Xrotation
					JOINT LeftArm
					{
						OFFSET 3.362410 1.200890 -0.311210
						CHANNELS 3 Zrotation Yrotation Xrotation
						JOINT LeftForeArm
						{
							OFFSET 4.983000 -0.000000 -0.000000
							CHANNELS 3 Zrotation Yrotation Xrotation
							JOINT LeftHand
							{
								OFFSET 3.483560 -0.000000 -0.000000
								CHANNELS 3 Zrotation Yrotation Xrotation
								JOINT LeftFingerBase
								{
									OFFSET 0.000000 0.000000 0.000000
									CHANNELS 3 Zrotation Yrotation Xrotation
									JOINT LeftHandIndex1
									{
										OFFSET 0.715260 -0.000000 -0.000000
										CHANNELS 3 Zrotation Yrotation Xrotation
										End Site
										{
											OFFSET 0.000000 0.000000 0.000000
										}
									}
								}
								JOINT LThumb
								{
									OFFSET 0.000000 0.000000 0.000000
									CHANNELS 3 Zrotation Yrotation Xrotation
									End Site
									{
										OFFSET 0.000000 0.000000 0.000000
									}
								}
							}
						}
					}
				}
				JOINT RightShoulder
				{
					OFFSET 0.000000 0.000000 0.000000
					CHANNELS 3 Zrotation Yrotation Xrotation
					JOINT RightArm
					{
						OFFSET -3.136600 1.374050 -0.404650
						CHANNELS 3 Zrotation Yrotation Xrotation
						JOINT RightForeArm
						{
							OFFSET -5.241900 -0.000000 -0.000000
							CHANNELS 3 Zrotation Yrotation Xrotation
							JOINT RightHand
							{
								OFFSET -3.444170 -0.000000 -0.000000
								CHANNELS 3 Zrotation Yrotation Xrotation
								JOINT RightFingerBase
								{
									OFFSET 0.000000 0.000000 0.000000
									CHANNELS 3 Zrotation Yrotation Xrotation
									JOINT RightHandIndex1
									{
										OFFSET -0.622530 -0.000000 -0.000000
										CHANNELS 3 Zrotation Yrotation Xrotation
										End Site
										{
											OFFSET 0.000000 0.000000 0.000000
										}
									}
								}
								JOINT RThumb
								{
									OFFSET 0.000000 0.000000 0.000000
									CHANNELS 3 Zrotation Yrotation Xrotation
									End Site
									{
										OFFSET 0.000000 0.000000 0.000000
									}
								}
							}
						}
					}
				}
			}
		}
	}
}
MOTION
Frames: 12
Frame Time: 0.008333
17.124137 9.822469 1.317094 -9.754510 -75.536840 -13.602076 -2.251572 2.886236 2.757714 9.155091 -8.374338 -68.825060 12.124360 17.433043 65.289125 2.325058 9.315743 29.210482 0.650400 5.158900 14.362200 1.353775 -3.504259 4.796629 4.995879 15.826164 -72.166527 -15.373044 -17.489911 76.060258 -1.198918 -10.532968 18.056027 -0.385200 -3.985700 11.036400 -4.717640 0.909008 32.252548 0.553130 -1.812774 23.583105 0.739100 -1.921864 -6.385739 -20.798030 -22.218178 3.627494 29.179788 -32.301838 1.799406 8.136600 -16.318300 8.252300 0.587361 -2.752779 0.964879 -56.595717 -49.794908 9.198465 90.846898 -58.419201 -61.576225 1.170912 -0.532070 -31.830952 26.569673 19.078403 9.593000 -7.125000 0.000000 0.000000 -2.720500 52.416800 -0.496900 -0.323160 2.836925 -2.332097 99.385647 63.292615 68.371351 -37.311121 47.055698 -16.700923 0.655787 -0.169528 -1.589514 -16.902101 28.614454 -8.637400 7.125000 0.000000 0.000000 7.641500 -0.344600 7.664000 
17.107105 9.818929 1.318338 -9.604011 -75.581863 -13.909604 -2.250939 2.868333 2.764440 9.155233 -8.329493 -68.734960 12.174094 17.453688 65.453110 2.315615 9.343263 29.155256 0.616800 5.026300 13.983600 1.355246 -3.529166 4.818327 5.068490 15.709534 -72.107787 -15.411717 -17.513159 76.183545 -1.180205 -10.403026 17.862077 -0.402000 -4.070800 11.275800 -5.358860 1.243700 32.851312 1.307686 -1.766095 23.520756 1.420420 -1.856860 -6.748708 -21.256856 -22.249893 3.324658 28.800844 -32.281416 1.897772 8.043500 -16.271800 8.323400 0.580334 -2.728923 0.948250 -55.364910 -50.817323 9.968728 91.919065 -58.475851 -62.772988 1.191652 -0.519379 -32.611727 24.650433 18.383463 8.504400 -7.125000 0.000000 0.000000 -4.487100 51.302900 -0.697900 -0.365333 2.822554 -2.272317 99.270458 62.720698 69.062434 -37.173540 46.969583 -16.626515 0.658323 -0.176874 -1.919895 -16.211078 28.916385 -8.364300 7.125000 0.000000 0.000000 8.076600 -0.142800 8.137800 
17.084906 9.810126 1.320730 -9.220152 -75.577401 -14.325059 -2.253533 2.839620 2.770738 9.128174 -8.296577 -68.845960 12.230553 17.470058 65.647539 2.372782 8.892921 29.390969 0.488600 4.482100 12.437000 1.361161 -3.562557 4.846373 4.958284 15.673341 -72.226856 -15.462461 -17.535250 76.349281 -1.161455 -10.297239 17.687479 -0.408700 -4.104100 11.369700 -6.237089 1.612612 33.307852 2.052375 -1.759110 23.428274 2.242080 -1.806881 -7.100380 -21.401600 -22.277526 3.095088 28.264404 -32.216708 1.965562 7.898300 -16.212800 8.282300 0.579372 -2.690094 0.928788 -53.676305 -51.683646 10.444458 92.613699 -58.524913 -63.665425 1.187756 -0.518979 -33.329291 22.411937 16.829899 7.051300 -7.125000 0.000000 0.000000 -6.254500 49.256500 -0.658800 -0.405338 2.805355 -2.216404 99.735076 62.112430 70.324956 -37.007432 46.837535 -16.522561 0.658416 -0.173345 -2.365248 -16.131901 29.064765 -8.361300 7.125000 0.000000 0.000000 8.138200 -0.005500 8.220800 
17.076869 9.807543 1.320539 -9.099333 -75.598382 -14.399078 -2.251290 2.838146 2.770902 9.137545 -8.242040 -68.952005 12.259046 17.486762 65.748541 2.396616 8.778341 29.496892 0.516800 4.607700 12.792900 1.362519 -3.562654 4.842437 4.883604 15.779458 -72.289244 -15.493090 -17.533491 76.442831 -1.155584 -10.248791 17.639668 -0.374200 -3.928800 10.876500 -6.194486 1.672047 33.548013 2.048275 -1.690102 23.332339 2.237366 -1.758610 -7.277825 -21.511910 -22.318047 3.231728 28.425539 -32.329812 1.944705 7.944500 -16.282000 8.322100 0.644497 -2.663037 0.894086 -51.034073 -52.669506 11.013773 93.437460 -58.581168 -64.733928 1.179387 -0.486137 -34.272277 20.245073 15.970631 5.989500 -7.125000 0.000000 0.000000 -8.081300 47.981700 -0.598100 -0.410731 2.778728 -2.157804 100.645029 61.396643 71.040742 -36.848435 46.683544 -16.389754 0.658490 -0.166559 -2.110072 -16.888156 29.338557 -8.826100 7.125000 0.000000 0.000000 7.723300 0.383600 7.846300 
17.080505 9.814623 1.319582 -8.440398 -75.648388 -14.872510 -2.231817 2.865788 2.757054 8.942579 -8.233391 -68.955566 12.245704 17.487760 65.695501 2.368048 9.095652 29.384032 0.614500 5.017100 13.957200 1.379652 -3.525055 4.807313 4.621689 15.987200 -72.357989 -15.485466 -17.508156 76.412185 -1.172182 -10.072256 17.758128 -0.274900 -3.372200 9.316800 -5.190615 1.255533 33.048807 0.825392 -1.679026 23.575799 1.239203 -1.844130 -6.690960 -21.178639 -22.377481 3.269671 29.195595 -32.505149 1.822020 8.094300 -16.383800 8.426700 0.825300 -2.677424 0.849806 -46.684652 -53.929329 10.663731 94.509878 -58.643285 -65.982075 1.174228 -0.398729 -35.112902 18.511884 16.582065 5.575200 -7.125000 0.000000 0.000000 -9.902300 48.272500 -0.806800 -0.396444 2.763210 -2.126075 102.343732 61.084625 71.240301 -36.787272 46.559592 -16.290712 0.644335 -0.181892 -1.009091 -16.649554 29.756556 -8.806100 7.125000 0.000000 0.000000 7.912400 0.765300 8.094600 
17.079069 9.824670 1.326184 -7.904514 -75.635805 -15.186689 -2.227690 2.864409 2.748603 8.770141 -8.293748 -69.005300 12.229812 17.473536 65.624184 2.288390 9.432506 29.008699 0.740900 5.498500 15.336000 1.393504 -3.522038 4.807195 4.391266 16.013213 -72.507961 -15.455152 -17.498884 76.318422 -1.196847 -9.847201 17.919351 -0.212000 -2.964200 8.179000 -5.092171 1.186891 32.817373 0.690544 -1.700608 23.664102 1.177163 -1.869402 -6.490878 -21.267223 -22.379743 3.218384 29.400018 -32.480139 1.652124 8.159600 -16.379900 8.440300 0.907236 -2.669047 0.811014 -43.498352 -54.860409 10.305025 95.667468 -58.714966 -67.217434 1.166306 -0.309150 -35.703785 16.725762 17.407855 5.174700 -7.125000 0.000000 0.000000 -11.859800 48.756800 -1.113300 -0.416132 2.750654 -2.087017 102.812050 60.733325 71.550089 -36.844485 46.576831 -16.335760 0.636210 -0.188524 -0.696657 -16.086510 29.646460 -8.476800 7.125000 0.000000 0.000000 8.231900 0.564800 8.399500 
17.075912 9.834526 1.329724 -7.925808 -75.760911 -15.141308 -2.227481 2.857733 2.752353 8.828028 -8.174447 -68.964180 12.216923 17.480156 65.590012 2.241450 9.565675 28.769280 0.866900 5.936700 16.600800 1.386725 -3.531369 4.809273 4.512180 16.062294 -72.439725 -15.413342 -17.480930 76.171988 -1.221935 -9.578031 18.065382 -0.139000 -2.402600 6.619800 -5.241443 1.286055 32.970622 0.934557 -1.683396 23.682863 1.395507 -1.848497 -6.547818 -21.430808 -22.317116 3.216313 29.421473 -32.321545 1.428588 8.220000 -16.320000 8.370200 0.957247 -2.638379 0.781827 -40.413802 -55.549828 9.757703 96.660225 -58.788322 -68.305783 1.132218 -0.229561 -35.960995 14.426494 17.591808 4.414300 -7.125000 0.000000 0.000000 -14.064800 48.501000 -1.237200 -0.444461 2.731270 -2.051437 103.184157 60.305719 72.534106 -36.965664 46.642631 -16.450438 0.635317 -0.161587 -1.751834 -16.690148 28.991038 -8.616800 7.125000 0.000000 0.000000 7.815200 -0.008500 7.887800 
17.082514 9.846582 1.326567 -7.436517 -76.074718 -15.871073 -2.198766 2.873370 2.751040 8.715909 -7.858972 -68.563255 12.195273 17.504711 65.550546 2.287568 9.392953 28.969481 0.806100 5.729900 16.002700 1.381698 -3.517810 4.774893 4.682559 16.261347 -71.988445 -15.372554 -17.439148 76.011214 -1.280731 -8.996320 18.419241 -0.043300 -1.342700 3.692300 -4.694115 1.056568 33.199164 0.006736 -1.722225 23.821171 0.756885 -1.937450 -6.340879 -21.162188 -22.168908 3.236013 29.948873 -32.183061 1.384203 8.391000 -16.271500 8.388900 1.100627 -2.604880 0.775611 -35.581996 -55.975135 8.162642 97.563078 -58.874917 -69.324600 1.062036 -0.159335 -35.799033 12.003190 17.048485 3.488500 -7.125000 0.000000 0.000000 -16.057300 47.510000 -1.019500 -0.430444 2.692922 -2.034142 104.799930 59.911496 73.989239 -37.469864 46.913252 -16.825414 0.626226 -0.118765 -3.274030 -17.794165 28.014929 -8.902800 7.125000 0.000000 0.000000 7.071200 -0.835700 7.021300 
17.084045 9.852897 1.325993 -8.002056 -76.359249 -15.413016 -2.196080 2.876431 2.763553 8.880506 -7.509449 -68.417856 12.176034 17.533675 65.528004 2.381602 9.127854 29.421436 0.662500 5.205700 14.496100 1.355673 -3.520509 4.757141 5.022486 16.505070 -71.721773 -15.350881 -17.403467 75.914445 -1.300087 -8.931834 18.566448 -0.045200 -1.371500 3.771600 -4.565703 1.164023 33.402219 0.166516 -1.602872 23.907092 0.746887 -1.875730 -6.320233 -21.439131 -22.215822 3.080762 30.082780 -32.254923 1.366237 8.420000 -16.293200 8.503700 1.151113 -2.575444 0.764273 -32.181482 -56.525359 7.079478 98.452578 -58.946238 -70.295389 1.001480 -0.113586 -35.416580 10.010410 16.414742 2.751200 -7.125000 0.000000 0.000000 -17.590200 46.546400 -0.692300 -0.465739 2.669096 -2.013768 104.735009 59.674618 73.271615 -37.556042 46.976399 -16.881807 0.617358 -0.173002 -1.207443 -15.680629 28.744935 -8.026100 7.125000 0.000000 0.000000 8.392400 -0.413200 8.422700 
17.076199 9.853567 1.327332 -8.554649 -76.511259 -14.639508 -2.209272 2.867636 2.772128 9.112322 -7.277830 -68.669080 12.172438 17.556517 65.536946 2.418407 9.182110 29.621752 0.663500 5.209600 14.507400 1.345885 -3.523124 4.760428 5.213952 16.596918 -71.964772 -15.353719 -17.399744 75.916929 -1.275486 -9.187995 18.432614 -0.105400 -2.093700 5.764600 -4.606489 1.323869 33.161419 0.566498 -1.463438 24.034761 0.930655 -1.789412 -6.161327 -21.419960 -22.399100 2.918068 29.833447 -32.333445 1.061295 8.299800 -16.329200 8.410400 1.178494 -2.553564 0.743319 -29.107155 -57.114130 6.097905 99.271242 -59.009243 -71.171754 0.955008 -0.064882 -34.889711 8.356256 16.210587 2.218100 -7.125000 0.000000 0.000000 -18.967400 46.062300 -0.515700 -0.518939 2.654611 -1.994198 104.563848 59.441554 72.696565 -37.702332 47.080369 -16.987371 0.610500 -0.198889 0.035675 -14.787169 28.969482 -7.624700 7.125000 0.000000 0.000000 8.938000 -0.315200 8.999100 
17.069118 9.854141 1.330681 -8.278777 -76.414452 -14.608783 -2.216877 2.856450 2.765295 9.077717 -7.344941 -69.054579 12.191668 17.553671 65.587629 2.447825 9.193059 29.787938 0.642200 5.126900 14.270700 1.367625 -3.517734 4.776615 5.075398 16.400960 -72.421794 -15.384355 -17.433802 76.027350 -1.278517 -8.981010 18.420058 -0.093800 -1.975300 5.437500 -4.631412 1.327453 32.834603 0.645014 -1.451404 24.109932 1.006920 -1.778948 -5.986779 -21.182424 -22.513581 2.923194 29.706836 -32.350730 0.738101 8.233200 -16.356700 8.256500 1.223954 -2.527694 0.725899 -25.846937 -57.522145 4.996850 100.083610 -59.065915 -72.031199 0.894270 0.004746 -34.407569 6.254678 16.163379 1.588400 -7.125000 0.000000 0.000000 -20.773200 45.656000 -0.351600 -0.547031 2.634898 -1.974707 104.772723 59.126825 72.490696 -37.725362 47.077329 -16.971661 0.616666 -0.207971 0.037171 -15.185306 30.046191 -8.093000 7.125000 0.000000 0.000000 8.803800 0.829300 9.037100 
17.060602 9.847060 1.342068 -8.177416 -76.090698 -14.210776 -2.233277 2.852172 2.750028 9.000313 -7.631311 -69.751406 12.227989 17.537375 65.682833 2.498251 8.974239 30.042849 0.540800 4.711600 13.087900 1.401045 -3.491917 4.791676 4.734150 16.072178 -73.157806 -15.430950 -17.488034 76.203207 -1.292323 -8.746047 18.490182 -0.061000 -1.594300 4.385600 -4.277563 1.138675 32.251396 0.551853 -1.486875 24.159618 0.811299 -1.788699 -5.717496 -20.929126 -22.622643 2.855956 29.789807 -32.457636 0.627706 8.194300 -16.406900 8.236000 1.280006 -2.513413 0.707068 -22.539563 -58.023517 3.909129 100.919641 -59.126979 -72.910512 0.840861 0.061370 -34.211191 4.645033 16.017505 1.110800 -7.125000 0.000000 0.000000 -22.089800 45.245600 -0.140900 -0.569178 2.622528 -1.962651 104.416943 58.964807 71.694994 -37.962683 47.238399 -17.136423 0.618159 -0.211369 -0.115498 -15.099711 30.317895 -8.113600 7.125000 0.000000 0.000000 8.879400 1.091200 9.156800 
